M48
;Layer_Color=9474304
;FILE_FORMAT=4:4
METRIC,LZ
;TYPE=PLATED
T01F00S00C0.4000
T02F00S00C0.7112
T03F00S00C1.0000
T04F00S00C1.1000
T05F00S00C1.2000
;TYPE=NON_PLATED
T07F00S00C0.7000
%
T01
X0015748Y0009398
X0018288Y0009779
X0019812Y0010922
X0021336Y0009779
X002Y0026035
X0028829Y0035941
X0023368Y0049784
X0016256Y0051435
T02
X0021082Y0004699
X0022987
X0025781Y0009271
Y0010922
Y0012573
Y0030353
Y00319722
Y00335915
Y00352108
Y003683
T03
X001143Y0025654
X001397
Y0028575
X001143
T04
X003302Y0015073
X003556
Y0017613
X003302
Y0020153
X003556
X0006477Y0036449
Y0038989
Y0041529
Y0044069
Y0046609
X0003937
Y0044069
Y0041529
Y0038989
Y0036449
X0009779Y0057531
X0012319
X0014859
X0017399
X0019939
X0022479
X0025019
X0027559
X0030099
X003302Y0046569
Y0044029
Y0041489
Y0038949
Y0036409
X003556
Y0038949
Y0041489
Y0044029
Y0046569
Y0025233
Y0022693
X003302
Y0025233
X0020066Y0030861
Y0033401
Y0035941
X0021209Y0063754
X0023749
Y0066294
X0021209
X0018669
Y0063754
X0016129
Y0066294
X0026289
Y0063754
X0028829
X0031369
Y0066294
X0028829
X0013589
Y0063754
X0011049
Y0066294
X0008509
Y0063754
T05
X0003937Y0009779
Y0012319
Y0014859
Y0017399
Y0021463
Y0024003
Y0026543
Y0029083
X0016256Y00434068
X0018796
X0021336
X0023876
T07
X00171252Y00063476
X00229052
M30
