G04*
G04 #@! TF.GenerationSoftware,Altium Limited,Altium Designer,24.2.2 (26)*
G04*
G04 Layer_Color=128*
%FSLAX44Y44*%
%MOMM*%
G71*
G04*
G04 #@! TF.SameCoordinates,A69A520D-3C44-4C1A-B5D4-BA9765A151AF*
G04*
G04*
G04 #@! TF.FilePolarity,Positive*
G04*
G01*
G75*
%ADD67C,0.1270*%
D67*
X33870Y466090D02*
X44870D01*
X39370Y460590D02*
Y471590D01*
X59270Y466090D02*
X70270D01*
X64770Y460590D02*
Y471590D01*
X33870Y440690D02*
X44870D01*
X39370Y435190D02*
Y446190D01*
X59270Y440690D02*
X70270D01*
X64770Y435190D02*
Y446190D01*
X33870Y415290D02*
X44870D01*
X39370Y409790D02*
Y420790D01*
X59270Y415290D02*
X70270D01*
X64770Y409790D02*
Y420790D01*
X33870Y389890D02*
X44870D01*
X39370Y384390D02*
Y395390D01*
X59270Y389890D02*
X70270D01*
X64770Y384390D02*
Y395390D01*
X33870Y364490D02*
X44870D01*
X39370Y358990D02*
Y369990D01*
X59270Y364490D02*
X70270D01*
X64770Y358990D02*
Y369990D01*
X350100Y150730D02*
X361100D01*
X355600Y145230D02*
Y156230D01*
X324700Y150730D02*
X335700D01*
X330200Y145230D02*
Y156230D01*
X350100Y176130D02*
X361100D01*
X355600Y170630D02*
Y181630D01*
X324700Y176130D02*
X335700D01*
X330200Y170630D02*
Y181630D01*
X350100Y201530D02*
X361100D01*
X355600Y196030D02*
Y207030D01*
X324700Y201530D02*
X335700D01*
X330200Y196030D02*
Y207030D01*
X350100Y226930D02*
X361100D01*
X355600Y221430D02*
Y232430D01*
X324700Y226930D02*
X335700D01*
X330200Y221430D02*
Y232430D01*
X350100Y252330D02*
X361100D01*
X355600Y246830D02*
Y257830D01*
X324700Y252330D02*
X335700D01*
X330200Y246830D02*
Y257830D01*
X195160Y359410D02*
X206160D01*
X200660Y353910D02*
Y364910D01*
X195160Y334010D02*
X206160D01*
X200660Y328510D02*
Y339510D01*
X195160Y308610D02*
X206160D01*
X200660Y303110D02*
Y314110D01*
X109300Y256540D02*
X119300D01*
X114300Y251540D02*
Y261540D01*
X134700Y256540D02*
X144700D01*
X139700Y251540D02*
Y261540D01*
X33370Y148590D02*
X45370D01*
X39370Y142590D02*
Y154590D01*
X33370Y97790D02*
X45370D01*
X39370Y91790D02*
Y103790D01*
X33370Y173990D02*
X45370D01*
X39370Y167990D02*
Y179990D01*
X33370Y123190D02*
X45370D01*
X39370Y117190D02*
Y129190D01*
X33370Y265430D02*
X45370D01*
X39370Y259430D02*
Y271430D01*
X33370Y214630D02*
X45370D01*
X39370Y208630D02*
Y220630D01*
X33370Y290830D02*
X45370D01*
X39370Y284830D02*
Y296830D01*
X33370Y240030D02*
X45370D01*
X39370Y234030D02*
Y246030D01*
X350100Y364090D02*
X361100D01*
X355600Y358590D02*
Y369590D01*
X324700Y364090D02*
X335700D01*
X330200Y358590D02*
Y369590D01*
X350100Y389490D02*
X361100D01*
X355600Y383990D02*
Y394990D01*
X324700Y389490D02*
X335700D01*
X330200Y383990D02*
Y394990D01*
X350100Y414890D02*
X361100D01*
X355600Y409390D02*
Y420390D01*
X324700Y414890D02*
X335700D01*
X330200Y409390D02*
Y420390D01*
X350100Y440290D02*
X361100D01*
X355600Y434790D02*
Y445790D01*
X324700Y440290D02*
X335700D01*
X330200Y434790D02*
Y445790D01*
X350100Y465690D02*
X361100D01*
X355600Y460190D02*
Y471190D01*
X324700Y465690D02*
X335700D01*
X330200Y460190D02*
Y471190D01*
X117690Y575310D02*
X128690D01*
X123190Y569810D02*
Y580810D01*
X92290Y575310D02*
X103290D01*
X97790Y569810D02*
Y580810D01*
X143090Y575310D02*
X154090D01*
X148590Y569810D02*
Y580810D01*
X168490Y575310D02*
X179490D01*
X173990Y569810D02*
Y580810D01*
X193890Y575310D02*
X204890D01*
X199390Y569810D02*
Y580810D01*
X219290Y575310D02*
X230290D01*
X224790Y569810D02*
Y580810D01*
X244690Y575310D02*
X255690D01*
X250190Y569810D02*
Y580810D01*
X270090Y575310D02*
X281090D01*
X275590Y569810D02*
Y580810D01*
X295490Y575310D02*
X306490D01*
X300990Y569810D02*
Y580810D01*
X345950Y563880D02*
X377950D01*
X361950Y547880D02*
Y579880D01*
X345950Y38100D02*
X377950D01*
X361950Y22100D02*
Y54100D01*
X231990Y662940D02*
X242990D01*
X237490Y657440D02*
Y668440D01*
X231990Y637540D02*
X242990D01*
X237490Y632040D02*
Y643040D01*
X206590Y662940D02*
X217590D01*
X212090Y657440D02*
Y668440D01*
X181190Y662940D02*
X192190D01*
X186690Y657440D02*
Y668440D01*
X206590Y637540D02*
X217590D01*
X212090Y632040D02*
Y643040D01*
X181190Y637540D02*
X192190D01*
X186690Y632040D02*
Y643040D01*
X155790Y662940D02*
X166790D01*
X161290Y657440D02*
Y668440D01*
X155790Y637540D02*
X166790D01*
X161290Y632040D02*
Y643040D01*
X130390Y662940D02*
X141390D01*
X135890Y657440D02*
Y668440D01*
X130390Y637540D02*
X141390D01*
X135890Y632040D02*
Y643040D01*
X104990Y662940D02*
X115990D01*
X110490Y657440D02*
Y668440D01*
X104990Y637540D02*
X115990D01*
X110490Y632040D02*
Y643040D01*
X79590Y662940D02*
X90590D01*
X85090Y657440D02*
Y668440D01*
X79590Y637540D02*
X90590D01*
X85090Y632040D02*
Y643040D01*
X257390Y637540D02*
X268390D01*
X262890Y632040D02*
Y643040D01*
X282790Y637540D02*
X293790D01*
X288290Y632040D02*
Y643040D01*
X308190Y637540D02*
X319190D01*
X313690Y632040D02*
Y643040D01*
X257390Y662940D02*
X268390D01*
X262890Y657440D02*
Y668440D01*
X282790Y662940D02*
X293790D01*
X288290Y657440D02*
Y668440D01*
X308190Y662940D02*
X319190D01*
X313690Y657440D02*
Y668440D01*
X22100Y563880D02*
X54100D01*
X38100Y547880D02*
Y579880D01*
X22100Y38100D02*
X54100D01*
X38100Y22100D02*
Y54100D01*
X181960Y434068D02*
X193960D01*
X187960Y428068D02*
Y440068D01*
X232760Y434068D02*
X244760D01*
X238760Y428068D02*
Y440068D01*
X156560Y434068D02*
X168560D01*
X162560Y428068D02*
Y440068D01*
X207360Y434068D02*
X219360D01*
X213360Y428068D02*
Y440068D01*
X167752Y63476D02*
X174752D01*
X171252Y59976D02*
Y66976D01*
X225552Y63476D02*
X232552D01*
X229052Y59976D02*
Y66976D01*
X134700Y285750D02*
X144700D01*
X139700Y280750D02*
Y290750D01*
X109300Y285750D02*
X119300D01*
X114300Y280750D02*
Y290750D01*
X254254Y303530D02*
X261366D01*
X257810Y299974D02*
Y307086D01*
X254254Y368300D02*
X261366D01*
X257810Y364744D02*
Y371856D01*
X254254Y352108D02*
X261366D01*
X257810Y348551D02*
Y355663D01*
X286290Y359410D02*
X290290D01*
X288290Y357410D02*
Y361410D01*
X231680Y497840D02*
X235680D01*
X233680Y495840D02*
Y499840D01*
X160560Y514350D02*
X164560D01*
X162560Y512350D02*
Y516350D01*
X254254Y335915D02*
X261366D01*
X257810Y332359D02*
Y339471D01*
X254254Y319722D02*
X261366D01*
X257810Y316166D02*
Y323279D01*
X198000Y260350D02*
X202000D01*
X200000Y258350D02*
Y262350D01*
X254254Y92710D02*
X261366D01*
X257810Y89154D02*
Y96266D01*
X254254Y109220D02*
X261366D01*
X257810Y105664D02*
Y112776D01*
X254254Y125730D02*
X261366D01*
X257810Y122174D02*
Y129286D01*
X196120Y109220D02*
X200120D01*
X198120Y107220D02*
Y111220D01*
X207264Y46990D02*
X214376D01*
X210820Y43434D02*
Y50546D01*
X226314Y46990D02*
X233426D01*
X229870Y43434D02*
Y50546D01*
X211360Y97790D02*
X215360D01*
X213360Y95790D02*
Y99790D01*
X180880Y97790D02*
X184880D01*
X182880Y95790D02*
Y99790D01*
X155480Y93980D02*
X159480D01*
X157480Y91980D02*
Y95980D01*
M02*
