G04*
G04 #@! TF.GenerationSoftware,Altium Limited,Altium Designer,24.2.2 (26)*
G04*
G04 Layer_Physical_Order=2*
G04 Layer_Color=16711680*
%FSLAX44Y44*%
%MOMM*%
G71*
G04*
G04 #@! TF.SameCoordinates,A69A520D-3C44-4C1A-B5D4-BA9765A151AF*
G04*
G04*
G04 #@! TF.FilePolarity,Positive*
G04*
G01*
G75*
%ADD10C,0.2000*%
%ADD15R,1.2000X1.2000*%
%ADD34C,0.5000*%
%ADD35C,1.0000*%
%ADD36C,0.4000*%
%ADD38C,2.0000*%
%ADD39R,2.0000X2.0000*%
%ADD40O,2.4000X1.8000*%
%ADD41R,2.4000X1.8000*%
%ADD42O,1.7780X2.0320*%
%ADD43O,3.0000X2.0000*%
%ADD44C,1.6000*%
%ADD45R,1.6000X1.6000*%
%ADD46C,6.5000*%
%ADD47O,2.0000X3.0000*%
%ADD48C,0.7000*%
%ADD49C,1.2700*%
%ADD50R,1.2000X1.2000*%
%ADD51R,1.9000X1.5000*%
%ADD52R,2.2000X2.0000*%
%ADD53R,2.0000X2.2000*%
%ADD54R,2.7000X1.0000*%
%ADD55R,2.7000X3.3000*%
%ADD56O,0.7000X2.3000*%
%ADD57C,0.5300*%
G36*
X316221Y674616D02*
X316314Y673905D01*
X316469Y673206D01*
X316686Y672519D01*
X316965Y671844D01*
X317306Y671181D01*
X317709Y670531D01*
X318174Y669893D01*
X318701Y669267D01*
X319290Y668653D01*
X308090D01*
X308679Y669267D01*
X309206Y669893D01*
X309671Y670531D01*
X310074Y671181D01*
X310415Y671844D01*
X310694Y672519D01*
X310911Y673206D01*
X311066Y673905D01*
X311159Y674616D01*
X311190Y675339D01*
X316190D01*
X316221Y674616D01*
D02*
G37*
G36*
X290821D02*
X290914Y673905D01*
X291069Y673206D01*
X291286Y672519D01*
X291565Y671844D01*
X291906Y671181D01*
X292309Y670531D01*
X292774Y669893D01*
X293301Y669267D01*
X293890Y668653D01*
X282690D01*
X283279Y669267D01*
X283806Y669893D01*
X284271Y670531D01*
X284674Y671181D01*
X285015Y671844D01*
X285294Y672519D01*
X285511Y673206D01*
X285666Y673905D01*
X285759Y674616D01*
X285790Y675339D01*
X290790D01*
X290821Y674616D01*
D02*
G37*
G36*
X265421D02*
X265514Y673905D01*
X265669Y673206D01*
X265886Y672519D01*
X266165Y671844D01*
X266506Y671181D01*
X266909Y670531D01*
X267374Y669893D01*
X267901Y669267D01*
X268490Y668653D01*
X257290D01*
X257879Y669267D01*
X258406Y669893D01*
X258871Y670531D01*
X259274Y671181D01*
X259615Y671844D01*
X259894Y672519D01*
X260111Y673206D01*
X260266Y673905D01*
X260359Y674616D01*
X260390Y675339D01*
X265390D01*
X265421Y674616D01*
D02*
G37*
G36*
X240021D02*
X240114Y673905D01*
X240269Y673206D01*
X240486Y672519D01*
X240765Y671844D01*
X241106Y671181D01*
X241509Y670531D01*
X241974Y669893D01*
X242501Y669267D01*
X243090Y668653D01*
X231890D01*
X232479Y669267D01*
X233006Y669893D01*
X233471Y670531D01*
X233874Y671181D01*
X234215Y671844D01*
X234494Y672519D01*
X234711Y673206D01*
X234866Y673905D01*
X234959Y674616D01*
X234990Y675339D01*
X239990D01*
X240021Y674616D01*
D02*
G37*
G36*
X214621D02*
X214714Y673905D01*
X214869Y673206D01*
X215086Y672519D01*
X215365Y671844D01*
X215706Y671181D01*
X216109Y670531D01*
X216574Y669893D01*
X217101Y669267D01*
X217690Y668653D01*
X206490D01*
X207079Y669267D01*
X207606Y669893D01*
X208071Y670531D01*
X208474Y671181D01*
X208815Y671844D01*
X209094Y672519D01*
X209311Y673206D01*
X209466Y673905D01*
X209559Y674616D01*
X209590Y675339D01*
X214590D01*
X214621Y674616D01*
D02*
G37*
G36*
X163821D02*
X163914Y673905D01*
X164069Y673206D01*
X164286Y672519D01*
X164565Y671844D01*
X164906Y671181D01*
X165309Y670531D01*
X165774Y669893D01*
X166301Y669267D01*
X166890Y668653D01*
X155690D01*
X156279Y669267D01*
X156806Y669893D01*
X157271Y670531D01*
X157674Y671181D01*
X158015Y671844D01*
X158294Y672519D01*
X158511Y673206D01*
X158666Y673905D01*
X158759Y674616D01*
X158790Y675339D01*
X163790D01*
X163821Y674616D01*
D02*
G37*
G36*
X138421D02*
X138514Y673905D01*
X138669Y673206D01*
X138886Y672519D01*
X139165Y671844D01*
X139506Y671181D01*
X139909Y670531D01*
X140374Y669893D01*
X140901Y669267D01*
X141490Y668653D01*
X130290D01*
X130879Y669267D01*
X131406Y669893D01*
X131871Y670531D01*
X132274Y671181D01*
X132615Y671844D01*
X132894Y672519D01*
X133111Y673206D01*
X133266Y673905D01*
X133359Y674616D01*
X133390Y675339D01*
X138390D01*
X138421Y674616D01*
D02*
G37*
G36*
X113021D02*
X113114Y673905D01*
X113269Y673206D01*
X113486Y672519D01*
X113765Y671844D01*
X114106Y671181D01*
X114509Y670531D01*
X114974Y669893D01*
X115501Y669267D01*
X116090Y668653D01*
X104890D01*
X105479Y669267D01*
X106006Y669893D01*
X106471Y670531D01*
X106874Y671181D01*
X107215Y671844D01*
X107494Y672519D01*
X107711Y673206D01*
X107866Y673905D01*
X107959Y674616D01*
X107990Y675339D01*
X112990D01*
X113021Y674616D01*
D02*
G37*
G36*
X87621D02*
X87714Y673905D01*
X87869Y673206D01*
X88086Y672519D01*
X88365Y671844D01*
X88706Y671181D01*
X89109Y670531D01*
X89574Y669893D01*
X90101Y669267D01*
X90690Y668653D01*
X79490D01*
X80079Y669267D01*
X80606Y669893D01*
X81071Y670531D01*
X81474Y671181D01*
X81815Y671844D01*
X82094Y672519D01*
X82311Y673206D01*
X82466Y673905D01*
X82559Y674616D01*
X82590Y675339D01*
X87590D01*
X87621Y674616D01*
D02*
G37*
G36*
X187954Y674904D02*
X188056Y674190D01*
X188225Y673504D01*
X188463Y672845D01*
X188768Y672214D01*
X189141Y671610D01*
X189582Y671034D01*
X190091Y670485D01*
X190667Y669964D01*
X191312Y669470D01*
X180254Y667692D01*
X180761Y668413D01*
X181614Y669848D01*
X181960Y670562D01*
X182253Y671273D01*
X182493Y671982D01*
X182680Y672689D01*
X182813Y673394D01*
X182893Y674096D01*
X182920Y674796D01*
X187920Y675645D01*
X187954Y674904D01*
D02*
G37*
G36*
X242501Y656613D02*
X241974Y655987D01*
X241509Y655349D01*
X241106Y654698D01*
X240765Y654036D01*
X240486Y653361D01*
X240269Y652674D01*
X240114Y651975D01*
X240021Y651264D01*
X239990Y650541D01*
X234990D01*
X234959Y651264D01*
X234866Y651975D01*
X234711Y652674D01*
X234494Y653361D01*
X234215Y654036D01*
X233874Y654698D01*
X233471Y655349D01*
X233006Y655987D01*
X232479Y656613D01*
X231890Y657227D01*
X243090D01*
X242501Y656613D01*
D02*
G37*
G36*
X240021Y649216D02*
X240114Y648505D01*
X240269Y647806D01*
X240486Y647119D01*
X240765Y646444D01*
X241106Y645781D01*
X241509Y645131D01*
X241974Y644493D01*
X242501Y643867D01*
X243090Y643253D01*
X231890D01*
X232479Y643867D01*
X233006Y644493D01*
X233471Y645131D01*
X233874Y645781D01*
X234215Y646444D01*
X234494Y647119D01*
X234711Y647806D01*
X234866Y648505D01*
X234959Y649216D01*
X234990Y649939D01*
X239990D01*
X240021Y649216D01*
D02*
G37*
G36*
X318701Y631213D02*
X318174Y630587D01*
X317709Y629949D01*
X317306Y629299D01*
X316965Y628636D01*
X316686Y627961D01*
X316469Y627274D01*
X316314Y626575D01*
X316221Y625864D01*
X316190Y625141D01*
X311190D01*
X311159Y625864D01*
X311066Y626575D01*
X310911Y627274D01*
X310694Y627961D01*
X310415Y628636D01*
X310074Y629299D01*
X309671Y629949D01*
X309206Y630587D01*
X308679Y631213D01*
X308090Y631827D01*
X319290D01*
X318701Y631213D01*
D02*
G37*
G36*
X267901D02*
X267374Y630587D01*
X266909Y629949D01*
X266506Y629299D01*
X266165Y628636D01*
X265886Y627961D01*
X265669Y627274D01*
X265514Y626575D01*
X265421Y625864D01*
X265390Y625141D01*
X260390D01*
X260359Y625864D01*
X260266Y626575D01*
X260111Y627274D01*
X259894Y627961D01*
X259615Y628636D01*
X259274Y629299D01*
X258871Y629949D01*
X258406Y630587D01*
X257879Y631213D01*
X257290Y631827D01*
X268490D01*
X267901Y631213D01*
D02*
G37*
G36*
X166301D02*
X165774Y630587D01*
X165309Y629949D01*
X164906Y629299D01*
X164565Y628636D01*
X164286Y627961D01*
X164069Y627274D01*
X163914Y626575D01*
X163821Y625864D01*
X163790Y625141D01*
X158790D01*
X158759Y625864D01*
X158666Y626575D01*
X158511Y627274D01*
X158294Y627961D01*
X158015Y628636D01*
X157674Y629299D01*
X157271Y629949D01*
X156806Y630587D01*
X156279Y631213D01*
X155690Y631827D01*
X166890D01*
X166301Y631213D01*
D02*
G37*
G36*
X140901D02*
X140374Y630587D01*
X139909Y629949D01*
X139506Y629299D01*
X139165Y628636D01*
X138886Y627961D01*
X138669Y627274D01*
X138514Y626575D01*
X138421Y625864D01*
X138390Y625141D01*
X133390D01*
X133359Y625864D01*
X133266Y626575D01*
X133111Y627274D01*
X132894Y627961D01*
X132615Y628636D01*
X132274Y629299D01*
X131871Y629949D01*
X131406Y630587D01*
X130879Y631213D01*
X130290Y631827D01*
X141490D01*
X140901Y631213D01*
D02*
G37*
G36*
X115501D02*
X114974Y630587D01*
X114509Y629949D01*
X114106Y629299D01*
X113765Y628636D01*
X113486Y627961D01*
X113269Y627274D01*
X113114Y626575D01*
X113021Y625864D01*
X112990Y625141D01*
X107990D01*
X107959Y625864D01*
X107866Y626575D01*
X107711Y627274D01*
X107494Y627961D01*
X107215Y628636D01*
X106874Y629299D01*
X106471Y629949D01*
X106006Y630587D01*
X105479Y631213D01*
X104890Y631827D01*
X116090D01*
X115501Y631213D01*
D02*
G37*
G36*
X49530Y692150D02*
X377190Y692150D01*
X377189Y692149D01*
X378440Y692149D01*
X380894Y691661D01*
X383205Y690704D01*
X385285Y689314D01*
X387054Y687546D01*
X388444Y685466D01*
X389402Y683154D01*
X389890Y680701D01*
X389890Y679450D01*
X389890Y607060D01*
X389888Y607059D01*
X389888Y606308D01*
X389596Y604837D01*
X389021Y603450D01*
X388188Y602202D01*
X387127Y601141D01*
X385879Y600307D01*
X384492Y599733D01*
X383020Y599440D01*
X337820D01*
X337820Y599440D01*
X336699Y599384D01*
X334502Y598947D01*
X332432Y598090D01*
X330569Y596845D01*
X328984Y595261D01*
X327740Y593398D01*
X326882Y591328D01*
X326445Y589130D01*
X326390Y588010D01*
Y537210D01*
X326390Y537209D01*
X326433Y536337D01*
X326773Y534628D01*
X327440Y533018D01*
X328408Y531569D01*
X329640Y530337D01*
X331089Y529369D01*
X332699Y528702D01*
X334409Y528363D01*
X335280Y528320D01*
X384810D01*
X384809Y528318D01*
X385685Y528319D01*
X387402Y527977D01*
X389020Y527308D01*
X390476Y526335D01*
X391715Y525097D01*
X392688Y523641D01*
X393358Y522023D01*
X393700Y520306D01*
X393700Y519430D01*
X393700Y100330D01*
X393700Y100330D01*
X393700Y99319D01*
X392926Y97452D01*
X391497Y96023D01*
X389630Y95250D01*
X311150D01*
X311149Y95250D01*
X310398Y95250D01*
X308926Y95543D01*
X307540Y96117D01*
X306292Y96951D01*
X305230Y98012D01*
X304396Y99261D01*
X303822Y100647D01*
X303530Y102120D01*
X303530Y102870D01*
Y232410D01*
X303528Y232409D01*
X303491Y233156D01*
X303200Y234621D01*
X302629Y236001D01*
X301800Y237243D01*
X300744Y238300D01*
X299502Y239130D01*
X298122Y239702D01*
X296657Y239993D01*
X295910Y240030D01*
X285750Y240030D01*
X284511Y239908D01*
X282222Y238960D01*
X280470Y237208D01*
X279522Y234919D01*
X279400Y233680D01*
Y222250D01*
X279397Y222249D01*
X279397Y221239D01*
X278625Y219372D01*
X277196Y217943D01*
X275330Y217170D01*
X274320Y217170D01*
X242570D01*
Y370840D01*
Y372103D01*
X243537Y374437D01*
X245323Y376223D01*
X247657Y377190D01*
X248920D01*
X265430Y377190D01*
X265430Y377190D01*
X266440Y377190D01*
X268307Y376417D01*
X269737Y374987D01*
X270510Y373120D01*
X270510Y372110D01*
X270510Y299719D01*
Y299718D01*
X270608Y298727D01*
X271366Y296896D01*
X272768Y295495D01*
X274599Y294737D01*
X275590Y294640D01*
X275589Y294639D01*
X276340Y294639D01*
X277812Y294347D01*
X279199Y293773D01*
X280447Y292939D01*
X281509Y291878D01*
X282343Y290630D01*
X282917Y289243D01*
X283210Y287771D01*
X283210Y287020D01*
X283210Y274319D01*
Y274317D01*
X283332Y273079D01*
X284280Y270790D01*
X286032Y269039D01*
X288321Y268092D01*
X289560Y267970D01*
X360680D01*
X360679Y267969D01*
X361430Y267969D01*
X362902Y267677D01*
X364289Y267103D01*
X365537Y266269D01*
X366599Y265208D01*
X367433Y263960D01*
X368007Y262573D01*
X368300Y261101D01*
X368300Y260350D01*
X368300Y245110D01*
X368299Y245109D01*
X368299Y244099D01*
X367526Y242232D01*
X366097Y240803D01*
X364230Y240030D01*
X363220Y240030D01*
X326390D01*
X326389Y240029D01*
X325518Y239986D01*
X323809Y239646D01*
X322199Y238979D01*
X320750Y238011D01*
X319518Y236779D01*
X318549Y235330D01*
X317883Y233720D01*
X317543Y232011D01*
X317500Y231140D01*
Y127000D01*
Y126999D01*
X317543Y126128D01*
X317883Y124418D01*
X318549Y122808D01*
X319518Y121359D01*
X320750Y120127D01*
X322199Y119159D01*
X323809Y118492D01*
X325519Y118153D01*
X326390Y118110D01*
X372109D01*
X373105Y118159D01*
X375059Y118547D01*
X376899Y119309D01*
X378556Y120415D01*
X379964Y121824D01*
X381071Y123480D01*
X381833Y125320D01*
X382221Y127274D01*
X382270Y128270D01*
X382270Y504190D01*
X382269Y504189D01*
X382147Y505428D01*
X381200Y507718D01*
X379448Y509470D01*
X377159Y510418D01*
X375920Y510540D01*
X327660Y510540D01*
X326409D01*
X323955Y511028D01*
X321644Y511985D01*
X319564Y513375D01*
X317795Y515144D01*
X316405Y517224D01*
X315448Y519535D01*
X314960Y521989D01*
Y523240D01*
Y607059D01*
X314960Y608060D01*
X315350Y610023D01*
X316115Y611872D01*
X317227Y613537D01*
X318643Y614952D01*
X320307Y616064D01*
X322156Y616830D01*
X324119Y617220D01*
X325120Y617220D01*
X354330Y617220D01*
X354329D01*
X355568Y617342D01*
X357858Y618289D01*
X359610Y620042D01*
X360558Y622331D01*
X360680Y623570D01*
X360680Y669290D01*
X360679Y669289D01*
X360636Y670161D01*
X360297Y671870D01*
X359630Y673480D01*
X358662Y674929D01*
X357430Y676162D01*
X355981Y677130D01*
X354371Y677797D01*
X352661Y678137D01*
X351790Y678180D01*
X72390Y678180D01*
X72389Y678179D01*
X71518Y678137D01*
X69809Y677797D01*
X68199Y677130D01*
X66750Y676162D01*
X65518Y674929D01*
X64550Y673480D01*
X63883Y671870D01*
X63543Y670161D01*
X63500Y669290D01*
Y631190D01*
Y631189D01*
X63537Y630443D01*
X63828Y628978D01*
X64400Y627597D01*
X65230Y626356D01*
X66286Y625299D01*
X67528Y624469D01*
X68908Y623898D01*
X70373Y623607D01*
X71120Y623570D01*
X88900D01*
X88899Y623569D01*
X89775Y623569D01*
X91493Y623228D01*
X93111Y622558D01*
X94567Y621585D01*
X95805Y620347D01*
X96778Y618891D01*
X97448Y617273D01*
X97790Y615556D01*
X97790Y614680D01*
X97790Y599440D01*
Y591820D01*
Y591819D01*
X97888Y590828D01*
X98646Y588997D01*
X100048Y587596D01*
X101879Y586837D01*
X102870Y586740D01*
X105410D01*
X105409Y586739D01*
X106167Y586739D01*
X107568Y586160D01*
X108640Y585088D01*
X109220Y583688D01*
X109220Y582930D01*
X109220Y568960D01*
X109219Y568959D01*
X109219Y568201D01*
X108639Y566801D01*
X107568Y565730D01*
X106168Y565150D01*
X105410Y565150D01*
X85089D01*
X84079Y565150D01*
X82212Y565923D01*
X80783Y567352D01*
X80010Y569220D01*
X80010Y570230D01*
X80010Y591820D01*
X80010D01*
X79973Y592567D01*
X79682Y594032D01*
X79110Y595412D01*
X78280Y596654D01*
X77224Y597710D01*
X75982Y598540D01*
X74602Y599112D01*
X73137Y599403D01*
X72390Y599440D01*
X47509D01*
X46037Y599733D01*
X44651Y600307D01*
X43403Y601141D01*
X42341Y602202D01*
X41507Y603451D01*
X40933Y604837D01*
X40640Y606310D01*
Y607060D01*
X40640Y678180D01*
Y683260D01*
X40640Y684135D01*
X40981Y685853D01*
X41652Y687471D01*
X42624Y688927D01*
X43863Y690165D01*
X45319Y691138D01*
X46937Y691808D01*
X48654Y692150D01*
X49530Y692150D01*
D02*
G37*
G36*
X303521Y586986D02*
X303614Y586275D01*
X303769Y585576D01*
X303986Y584889D01*
X304265Y584214D01*
X304606Y583551D01*
X305009Y582901D01*
X305474Y582263D01*
X306001Y581637D01*
X306590Y581023D01*
X295390D01*
X295979Y581637D01*
X296506Y582263D01*
X296971Y582901D01*
X297374Y583551D01*
X297715Y584214D01*
X297994Y584889D01*
X298211Y585576D01*
X298366Y586275D01*
X298459Y586986D01*
X298490Y587709D01*
X303490D01*
X303521Y586986D01*
D02*
G37*
G36*
X278121D02*
X278214Y586275D01*
X278369Y585576D01*
X278586Y584889D01*
X278865Y584214D01*
X279206Y583551D01*
X279609Y582901D01*
X280074Y582263D01*
X280601Y581637D01*
X281190Y581023D01*
X269990D01*
X270579Y581637D01*
X271106Y582263D01*
X271571Y582901D01*
X271974Y583551D01*
X272315Y584214D01*
X272594Y584889D01*
X272811Y585576D01*
X272966Y586275D01*
X273059Y586986D01*
X273090Y587709D01*
X278090D01*
X278121Y586986D01*
D02*
G37*
G36*
X252721D02*
X252814Y586275D01*
X252969Y585576D01*
X253186Y584889D01*
X253465Y584214D01*
X253806Y583551D01*
X254209Y582901D01*
X254674Y582263D01*
X255201Y581637D01*
X255790Y581023D01*
X244590D01*
X245179Y581637D01*
X245706Y582263D01*
X246171Y582901D01*
X246574Y583551D01*
X246915Y584214D01*
X247194Y584889D01*
X247411Y585576D01*
X247566Y586275D01*
X247659Y586986D01*
X247690Y587709D01*
X252690D01*
X252721Y586986D01*
D02*
G37*
G36*
X227321D02*
X227414Y586275D01*
X227569Y585576D01*
X227786Y584889D01*
X228065Y584214D01*
X228406Y583551D01*
X228809Y582901D01*
X229274Y582263D01*
X229801Y581637D01*
X230390Y581023D01*
X219190D01*
X219779Y581637D01*
X220306Y582263D01*
X220771Y582901D01*
X221174Y583551D01*
X221515Y584214D01*
X221794Y584889D01*
X222011Y585576D01*
X222166Y586275D01*
X222259Y586986D01*
X222290Y587709D01*
X227290D01*
X227321Y586986D01*
D02*
G37*
G36*
X176521D02*
X176614Y586275D01*
X176769Y585576D01*
X176986Y584889D01*
X177265Y584214D01*
X177606Y583551D01*
X178009Y582901D01*
X178474Y582263D01*
X179001Y581637D01*
X179590Y581023D01*
X168390D01*
X168979Y581637D01*
X169506Y582263D01*
X169971Y582901D01*
X170374Y583551D01*
X170715Y584214D01*
X170994Y584889D01*
X171211Y585576D01*
X171366Y586275D01*
X171459Y586986D01*
X171490Y587709D01*
X176490D01*
X176521Y586986D01*
D02*
G37*
G36*
X204429Y569010D02*
X203928Y568406D01*
X203486Y567785D01*
X203102Y567147D01*
X202778Y566492D01*
X202512Y565820D01*
X202306Y565131D01*
X202158Y564425D01*
X202069Y563702D01*
X202040Y562962D01*
X196740D01*
X196710Y563702D01*
X196622Y564425D01*
X196474Y565131D01*
X196268Y565820D01*
X196003Y566492D01*
X195678Y567147D01*
X195294Y567785D01*
X194852Y568406D01*
X194350Y569010D01*
X193790Y569597D01*
X204990D01*
X204429Y569010D01*
D02*
G37*
G36*
X280601Y568983D02*
X280074Y568357D01*
X279609Y567719D01*
X279206Y567068D01*
X278865Y566406D01*
X278586Y565731D01*
X278369Y565044D01*
X278214Y564345D01*
X278121Y563634D01*
X278090Y562911D01*
X273090D01*
X273059Y563634D01*
X272966Y564345D01*
X272811Y565044D01*
X272594Y565731D01*
X272315Y566406D01*
X271974Y567068D01*
X271571Y567719D01*
X271106Y568357D01*
X270579Y568983D01*
X269990Y569597D01*
X281190D01*
X280601Y568983D01*
D02*
G37*
G36*
X229801D02*
X229274Y568357D01*
X228809Y567719D01*
X228406Y567068D01*
X228065Y566406D01*
X227786Y565731D01*
X227569Y565044D01*
X227414Y564345D01*
X227321Y563634D01*
X227290Y562911D01*
X222290D01*
X222259Y563634D01*
X222166Y564345D01*
X222011Y565044D01*
X221794Y565731D01*
X221515Y566406D01*
X221174Y567068D01*
X220771Y567719D01*
X220306Y568357D01*
X219779Y568983D01*
X219190Y569597D01*
X230390D01*
X229801Y568983D01*
D02*
G37*
G36*
X178906Y568893D02*
X177754Y567500D01*
X177286Y566810D01*
X176890Y566124D01*
X176566Y565443D01*
X176314Y564767D01*
X176134Y564095D01*
X176026Y563427D01*
X175990Y562764D01*
X171990D01*
X171954Y563427D01*
X171846Y564095D01*
X171666Y564767D01*
X171414Y565443D01*
X171090Y566124D01*
X170694Y566810D01*
X170226Y567500D01*
X169686Y568194D01*
X169074Y568893D01*
X168390Y569597D01*
X179590D01*
X178906Y568893D01*
D02*
G37*
G36*
X153506D02*
X152354Y567500D01*
X151886Y566810D01*
X151490Y566124D01*
X151166Y565443D01*
X150914Y564767D01*
X150734Y564095D01*
X150626Y563427D01*
X150590Y562764D01*
X146590D01*
X146554Y563427D01*
X146446Y564095D01*
X146266Y564767D01*
X146014Y565443D01*
X145690Y566124D01*
X145294Y566810D01*
X144826Y567500D01*
X144286Y568194D01*
X143674Y568893D01*
X142990Y569597D01*
X154190D01*
X153506Y568893D01*
D02*
G37*
G36*
X128106D02*
X126954Y567500D01*
X126486Y566810D01*
X126090Y566124D01*
X125766Y565443D01*
X125514Y564767D01*
X125334Y564095D01*
X125226Y563427D01*
X125190Y562764D01*
X121190D01*
X121154Y563427D01*
X121046Y564095D01*
X120866Y564767D01*
X120614Y565443D01*
X120290Y566124D01*
X119894Y566810D01*
X119426Y567500D01*
X118886Y568194D01*
X118274Y568893D01*
X117590Y569597D01*
X128790D01*
X128106Y568893D01*
D02*
G37*
G36*
X165164Y516715D02*
X165300Y516638D01*
X165467Y516571D01*
X165667Y516512D01*
X165898Y516463D01*
X166161Y516422D01*
X166783Y516368D01*
X167532Y516350D01*
Y512350D01*
X167142Y512346D01*
X166161Y512278D01*
X165898Y512238D01*
X165667Y512188D01*
X165467Y512130D01*
X165300Y512062D01*
X165164Y511986D01*
X165060Y511900D01*
Y516800D01*
X165164Y516715D01*
D02*
G37*
G36*
X175990Y514350D02*
X171990Y508350D01*
X171950Y509110D01*
X171830Y509790D01*
X171630Y510390D01*
X171350Y510910D01*
X170990Y511350D01*
X170550Y511710D01*
X170030Y511990D01*
X169430Y512190D01*
X168750Y512310D01*
X167990Y512350D01*
Y516350D01*
X168750Y516390D01*
X169430Y516510D01*
X170030Y516710D01*
X170550Y516990D01*
X170990Y517350D01*
X171350Y517790D01*
X171630Y518310D01*
X171830Y518910D01*
X171950Y519590D01*
X171990Y520350D01*
X175990Y514350D01*
D02*
G37*
G36*
X231180Y495390D02*
X231076Y495476D01*
X230940Y495552D01*
X230773Y495620D01*
X230573Y495678D01*
X230342Y495728D01*
X230079Y495768D01*
X229457Y495822D01*
X228708Y495840D01*
Y499840D01*
X229098Y499845D01*
X230079Y499912D01*
X230342Y499953D01*
X230573Y500002D01*
X230773Y500061D01*
X230940Y500128D01*
X231076Y500205D01*
X231180Y500290D01*
Y495390D01*
D02*
G37*
G36*
X358145Y480544D02*
X358280Y479709D01*
X358505Y478869D01*
X358820Y478024D01*
X359225Y477172D01*
X359720Y476315D01*
X360305Y475453D01*
X360980Y474585D01*
X361745Y473711D01*
X362600Y472832D01*
X348600D01*
X349455Y473711D01*
X350895Y475453D01*
X351480Y476315D01*
X351975Y477172D01*
X352380Y478024D01*
X352695Y478869D01*
X352920Y479709D01*
X353055Y480544D01*
X353100Y481373D01*
X358100D01*
X358145Y480544D01*
D02*
G37*
G36*
X320261Y460690D02*
X320211Y461165D01*
X320060Y461590D01*
X319808Y461965D01*
X319456Y462290D01*
X319003Y462565D01*
X318450Y462790D01*
X317796Y462965D01*
X317041Y463090D01*
X316186Y463165D01*
X315231Y463190D01*
Y468190D01*
X316186Y468215D01*
X317041Y468290D01*
X317796Y468415D01*
X318450Y468590D01*
X319003Y468815D01*
X319456Y469090D01*
X319808Y469415D01*
X320060Y469790D01*
X320211Y470215D01*
X320261Y470690D01*
Y460690D01*
D02*
G37*
G36*
X190636Y452753D02*
X190847Y450682D01*
X191032Y449841D01*
X191269Y449130D01*
X191559Y448547D01*
X191901Y448094D01*
X192297Y447771D01*
X192745Y447577D01*
X193246Y447512D01*
X182674D01*
X183175Y447577D01*
X183623Y447771D01*
X184019Y448094D01*
X184361Y448547D01*
X184651Y449130D01*
X184888Y449841D01*
X185073Y450682D01*
X185205Y451653D01*
X185284Y452753D01*
X185310Y453982D01*
X190610D01*
X190636Y452753D01*
D02*
G37*
G36*
X29534Y438887D02*
X29447Y439208D01*
X29311Y439496D01*
X29125Y439751D01*
X28890Y439971D01*
X28605Y440157D01*
X28271Y440309D01*
X27887Y440428D01*
X27454Y440513D01*
X26971Y440563D01*
X26439Y440580D01*
Y444580D01*
X27125Y444595D01*
X28338Y444710D01*
X28864Y444810D01*
X29338Y444939D01*
X29758Y445097D01*
X30125Y445284D01*
X30438Y445499D01*
X30699Y445743D01*
X30906Y446016D01*
X29534Y438887D01*
D02*
G37*
G36*
X363621Y446435D02*
X365363Y444995D01*
X366225Y444410D01*
X367082Y443915D01*
X367933Y443510D01*
X368779Y443195D01*
X369619Y442970D01*
X370454Y442835D01*
X371283Y442790D01*
Y437790D01*
X370454Y437745D01*
X369619Y437610D01*
X368779Y437385D01*
X367933Y437070D01*
X367082Y436665D01*
X366225Y436170D01*
X365363Y435585D01*
X364495Y434910D01*
X363621Y434145D01*
X362741Y433290D01*
Y447290D01*
X363621Y446435D01*
D02*
G37*
G36*
X323059Y433290D02*
X322206Y434117D01*
X321354Y434856D01*
X320503Y435509D01*
X319652Y436074D01*
X318801Y436553D01*
X317952Y436944D01*
X317102Y437249D01*
X316253Y437466D01*
X315405Y437597D01*
X314557Y437640D01*
Y442940D01*
X315405Y442984D01*
X316253Y443114D01*
X317102Y443332D01*
X317952Y443636D01*
X318801Y444028D01*
X319652Y444506D01*
X320503Y445072D01*
X321354Y445724D01*
X322206Y446464D01*
X323059Y447290D01*
Y433290D01*
D02*
G37*
G36*
X248793Y437595D02*
X248941Y437170D01*
X249190Y436795D01*
X249540Y436470D01*
X249993Y436195D01*
X250546Y435970D01*
X251202Y435795D01*
X251959Y435670D01*
X252818Y435595D01*
X253778Y435570D01*
Y430570D01*
X252808Y430545D01*
X251939Y430470D01*
X251173Y430345D01*
X250507Y430171D01*
X249944Y429946D01*
X249482Y429671D01*
X249121Y429347D01*
X248862Y428972D01*
X248705Y428547D01*
X248649Y428073D01*
X248747Y438070D01*
X248793Y437595D01*
D02*
G37*
G36*
X192745Y420559D02*
X192297Y420364D01*
X191901Y420041D01*
X191559Y419588D01*
X191269Y419006D01*
X191032Y418294D01*
X190847Y417453D01*
X190715Y416483D01*
X190636Y415383D01*
X190610Y414154D01*
X185310D01*
X185284Y415383D01*
X185073Y417453D01*
X184888Y418294D01*
X184651Y419006D01*
X184361Y419588D01*
X184019Y420041D01*
X183623Y420364D01*
X183175Y420559D01*
X182674Y420623D01*
X193246D01*
X192745Y420559D01*
D02*
G37*
G36*
X32229Y408290D02*
X31260Y409240D01*
X29391Y410840D01*
X28491Y411490D01*
X27614Y412040D01*
X26760Y412490D01*
X25928Y412840D01*
X25120Y413090D01*
X24335Y413240D01*
X23572Y413290D01*
Y417290D01*
X24335Y417340D01*
X25120Y417490D01*
X25928Y417740D01*
X26760Y418090D01*
X27614Y418540D01*
X28491Y419090D01*
X29391Y419740D01*
X30314Y420490D01*
X32229Y422290D01*
Y408290D01*
D02*
G37*
G36*
X368638Y399277D02*
X370067Y397848D01*
X370840Y395980D01*
X370840Y394970D01*
X370840Y379730D01*
X370840Y379730D01*
X370840Y379171D01*
X370412Y378140D01*
X369623Y377350D01*
X368591Y376922D01*
X368032Y376922D01*
X316497Y376922D01*
X316497D01*
X316192Y376922D01*
X315627Y377156D01*
X315194Y377589D01*
X314960Y378154D01*
X314960Y378460D01*
X314960Y378460D01*
X314935Y378708D01*
X314746Y379165D01*
X314396Y379516D01*
X313938Y379706D01*
X313690Y379730D01*
X243840Y379730D01*
X243840Y379730D01*
X242601Y379608D01*
X240312Y378660D01*
X238560Y376908D01*
X237612Y374619D01*
X237490Y373380D01*
Y355600D01*
X237489Y355600D01*
X237489Y354849D01*
X237197Y353377D01*
X236622Y351991D01*
X235788Y350742D01*
X234727Y349681D01*
X233479Y348847D01*
X232093Y348273D01*
X230620Y347980D01*
X194830D01*
X193357Y348273D01*
X191971Y348847D01*
X190723Y349681D01*
X189661Y350742D01*
X188827Y351991D01*
X188253Y353377D01*
X187960Y354850D01*
Y355600D01*
Y391162D01*
X187960Y392037D01*
X188302Y393755D01*
X188972Y395373D01*
X189945Y396828D01*
X191183Y398066D01*
X192639Y399039D01*
X194257Y399709D01*
X195974Y400050D01*
X196850Y400050D01*
X365760Y400050D01*
X365760Y400050D01*
X366771Y400050D01*
X368638Y399277D01*
D02*
G37*
G36*
X10913Y396864D02*
X10984Y396114D01*
X11101Y395397D01*
X11265Y394713D01*
X11476Y394062D01*
X11734Y393444D01*
X12038Y392859D01*
X12390Y392308D01*
X12788Y391789D01*
X13233Y391304D01*
X8890Y392819D01*
X6890D01*
X10890Y397648D01*
X10913Y396864D01*
D02*
G37*
G36*
X32229Y382890D02*
X31260Y383840D01*
X29391Y385440D01*
X28491Y386090D01*
X27614Y386640D01*
X26760Y387090D01*
X25928Y387440D01*
X25120Y387690D01*
X24335Y387840D01*
X23572Y387890D01*
Y391890D01*
X24335Y391940D01*
X25120Y392090D01*
X25928Y392340D01*
X26760Y392690D01*
X27614Y393140D01*
X28491Y393690D01*
X29391Y394340D01*
X30314Y395090D01*
X32229Y396890D01*
Y382890D01*
D02*
G37*
G36*
X348459Y357090D02*
X348031Y357470D01*
X347531Y357810D01*
X346959Y358110D01*
X346315Y358370D01*
X345599Y358590D01*
X344811Y358770D01*
X343951Y358910D01*
X343036Y359008D01*
X341849Y358910D01*
X340989Y358770D01*
X340201Y358590D01*
X339485Y358370D01*
X338842Y358110D01*
X338270Y357810D01*
X337770Y357470D01*
X337341Y357090D01*
Y371090D01*
X337770Y370710D01*
X338270Y370370D01*
X338842Y370070D01*
X339485Y369810D01*
X340201Y369590D01*
X340989Y369410D01*
X341849Y369270D01*
X342764Y369172D01*
X343951Y369270D01*
X344811Y369410D01*
X345599Y369590D01*
X346315Y369810D01*
X346959Y370070D01*
X347531Y370370D01*
X348031Y370710D01*
X348459Y371090D01*
Y357090D01*
D02*
G37*
G36*
X34290Y500380D02*
X162560Y500380D01*
X162560Y500379D01*
X163686Y500379D01*
X165894Y499940D01*
X167974Y499079D01*
X169846Y497828D01*
X171438Y496236D01*
X172689Y494364D01*
X173551Y492284D01*
X173990Y490076D01*
X173990Y488950D01*
X173990Y353060D01*
X174033Y352189D01*
X174373Y350479D01*
X175040Y348869D01*
X176008Y347420D01*
X177240Y346188D01*
X178689Y345220D01*
X180299Y344553D01*
X182009Y344213D01*
X182880Y344170D01*
X210820D01*
Y344170D01*
X212083D01*
X214417Y343203D01*
X216203Y341417D01*
X217170Y339083D01*
Y337820D01*
Y328930D01*
X217169Y328930D01*
X217169Y327667D01*
X216203Y325333D01*
X214417Y323547D01*
X212083Y322580D01*
X99060D01*
X99060Y322580D01*
X97940Y322525D01*
X95742Y322088D01*
X93672Y321230D01*
X91809Y319986D01*
X90225Y318401D01*
X88980Y316538D01*
X88122Y314468D01*
X87685Y312270D01*
X87630Y311150D01*
X87630Y110490D01*
X87630Y93980D01*
X87630Y93980D01*
X87630Y93230D01*
X87337Y91757D01*
X86763Y90371D01*
X85929Y89122D01*
X84867Y88061D01*
X83619Y87227D01*
X82233Y86653D01*
X80760Y86360D01*
X26930D01*
X25062Y87133D01*
X23633Y88562D01*
X22860Y90429D01*
Y91440D01*
Y102870D01*
X22860Y104133D01*
X23826Y106467D01*
X25613Y108253D01*
X27947Y109220D01*
X29210Y109220D01*
X57150Y109220D01*
X57150D01*
X58389Y109342D01*
X60678Y110290D01*
X62430Y112042D01*
X63378Y114331D01*
X63500Y115570D01*
X63500Y194310D01*
X63500Y194310D01*
X63457Y195181D01*
X63117Y196891D01*
X62450Y198501D01*
X61482Y199950D01*
X60250Y201182D01*
X58801Y202150D01*
X57191Y202817D01*
X55481Y203157D01*
X54610Y203200D01*
X29210Y203200D01*
X29210Y203200D01*
X28200Y203200D01*
X26332Y203973D01*
X24903Y205402D01*
X24130Y207269D01*
X24130Y208280D01*
Y219710D01*
X24130D01*
Y220973D01*
X25097Y223307D01*
X26883Y225093D01*
X29217Y226060D01*
X58420D01*
X58420Y226060D01*
X59411Y226158D01*
X61242Y226916D01*
X62644Y228318D01*
X63402Y230149D01*
X63500Y231140D01*
X63500Y335280D01*
X63500Y335280D01*
X63500Y336656D01*
X64037Y339355D01*
X65090Y341897D01*
X66619Y344185D01*
X68564Y346131D01*
X70853Y347660D01*
X73395Y348713D01*
X76094Y349250D01*
X77470Y349250D01*
X142240Y349250D01*
X142240D01*
X142987Y349287D01*
X144452Y349578D01*
X145832Y350149D01*
X147074Y350979D01*
X148130Y352036D01*
X148960Y353278D01*
X149532Y354658D01*
X149823Y356123D01*
X149860Y356870D01*
X149860Y471170D01*
X149859Y471170D01*
X149804Y472290D01*
X149367Y474488D01*
X148510Y476558D01*
X147265Y478421D01*
X145681Y480005D01*
X143818Y481250D01*
X141748Y482108D01*
X139550Y482545D01*
X138430Y482600D01*
X55880Y482600D01*
Y482600D01*
X54889Y482502D01*
X53058Y481744D01*
X51656Y480342D01*
X50898Y478511D01*
X50800Y477520D01*
Y459740D01*
X50799Y459740D01*
X50799Y458729D01*
X50026Y456862D01*
X48597Y455433D01*
X46730Y454660D01*
X33020D01*
X33020Y454660D01*
X32009Y454660D01*
X30142Y455434D01*
X28713Y456862D01*
X27940Y458730D01*
Y459740D01*
Y494030D01*
X27940Y495293D01*
X28907Y497627D01*
X30693Y499414D01*
X33027Y500380D01*
X34290Y500380D01*
D02*
G37*
G36*
X147783Y290263D02*
X147955Y289841D01*
X148243Y289468D01*
X148646Y289145D01*
X149164Y288871D01*
X149797Y288648D01*
X150546Y288474D01*
X151409Y288349D01*
X152388Y288275D01*
X153481Y288250D01*
Y283250D01*
X152388Y283225D01*
X151409Y283151D01*
X150546Y283026D01*
X149797Y282852D01*
X149164Y282629D01*
X148646Y282355D01*
X148243Y282032D01*
X147955Y281659D01*
X147783Y281237D01*
X147725Y280764D01*
Y290736D01*
X147783Y290263D01*
D02*
G37*
G36*
X197501Y257900D02*
X197397Y257985D01*
X197260Y258062D01*
X197093Y258130D01*
X196893Y258188D01*
X196662Y258237D01*
X196399Y258278D01*
X195777Y258332D01*
X195028Y258350D01*
Y262350D01*
X195418Y262355D01*
X196399Y262422D01*
X196662Y262463D01*
X196893Y262512D01*
X197093Y262570D01*
X197260Y262638D01*
X197397Y262715D01*
X197501Y262800D01*
Y257900D01*
D02*
G37*
G36*
X139582Y246410D02*
X139150Y246644D01*
X138668Y246759D01*
X138139Y246756D01*
X137561Y246634D01*
X136935Y246393D01*
X136260Y246034D01*
X135537Y245557D01*
X134765Y244961D01*
X133945Y244246D01*
X133077Y243413D01*
X129042Y246448D01*
X129853Y247295D01*
X131091Y248815D01*
X131518Y249487D01*
X131815Y250101D01*
X131985Y250657D01*
X132025Y251154D01*
X131937Y251593D01*
X131721Y251975D01*
X131375Y252297D01*
X139582Y246410D01*
D02*
G37*
G36*
X25231Y236044D02*
X25184Y236422D01*
X25044Y236759D01*
X24810Y237057D01*
X24483Y237315D01*
X24063Y237534D01*
X23549Y237712D01*
X22941Y237851D01*
X22241Y237951D01*
X21446Y238010D01*
X20559Y238030D01*
Y242030D01*
X21446Y242050D01*
X22241Y242109D01*
X22941Y242209D01*
X23549Y242348D01*
X24063Y242526D01*
X24483Y242745D01*
X24810Y243003D01*
X25044Y243301D01*
X25184Y243638D01*
X25231Y244016D01*
Y236044D01*
D02*
G37*
G36*
X153585Y236794D02*
X153739Y234165D01*
X153781Y234063D01*
X153827Y234029D01*
X147669D01*
X147843Y234063D01*
X147998Y234165D01*
X148135Y234336D01*
X148253Y234575D01*
X148354Y234882D01*
X148436Y235258D01*
X148500Y235702D01*
X148546Y236213D01*
X148582Y237442D01*
X153582D01*
X153585Y236794D01*
D02*
G37*
G36*
X131064Y238079D02*
X131139Y237229D01*
X131264Y236479D01*
X131439Y235829D01*
X131664Y235279D01*
X131939Y234829D01*
X132264Y234479D01*
X132639Y234229D01*
X133064Y234079D01*
X133539Y234029D01*
X123539D01*
X124014Y234079D01*
X124439Y234229D01*
X124814Y234479D01*
X125139Y234829D01*
X125414Y235279D01*
X125639Y235829D01*
X125814Y236479D01*
X125939Y237229D01*
X126014Y238079D01*
X126039Y239029D01*
X131039D01*
X131064Y238079D01*
D02*
G37*
G36*
X172689Y237435D02*
X172912Y234635D01*
X173015Y234185D01*
X173136Y233835D01*
X173275Y233585D01*
X173433Y233435D01*
X173610Y233385D01*
X165180Y233355D01*
X165655Y233407D01*
X166080Y233559D01*
X166455Y233811D01*
X166780Y234164D01*
X167055Y234617D01*
X167280Y235170D01*
X167455Y235824D01*
X167580Y236577D01*
X167655Y237431D01*
X167680Y238385D01*
X172680D01*
X172689Y237435D01*
D02*
G37*
G36*
X122600Y223060D02*
X122550Y223535D01*
X122399Y223960D01*
X122148Y224335D01*
X121795Y224660D01*
X121343Y224935D01*
X120789Y225160D01*
X120135Y225335D01*
X119381Y225460D01*
X118880Y225504D01*
X118378Y225460D01*
X117624Y225335D01*
X116970Y225160D01*
X116417Y224935D01*
X115964Y224660D01*
X115612Y224335D01*
X115360Y223960D01*
X115209Y223535D01*
X115159Y223060D01*
Y233060D01*
X115209Y232585D01*
X115360Y232160D01*
X115612Y231785D01*
X115964Y231460D01*
X116417Y231185D01*
X116970Y230960D01*
X117624Y230785D01*
X118378Y230660D01*
X118880Y230616D01*
X119381Y230660D01*
X120135Y230785D01*
X120789Y230960D01*
X121343Y231185D01*
X121795Y231460D01*
X122148Y231785D01*
X122399Y232160D01*
X122550Y232585D01*
X122600Y233060D01*
Y223060D01*
D02*
G37*
G36*
X152203Y201073D02*
X151816Y200928D01*
X151474Y200688D01*
X151178Y200351D01*
X150927Y199919D01*
X150723Y199390D01*
X150563Y198764D01*
X150449Y198043D01*
X150381Y197226D01*
X150358Y196312D01*
X145358D01*
X145335Y197226D01*
X145267Y198043D01*
X145153Y198764D01*
X144993Y199390D01*
X144788Y199919D01*
X144538Y200351D01*
X144242Y200688D01*
X143900Y200928D01*
X143513Y201073D01*
X143080Y201121D01*
X152636D01*
X152203Y201073D01*
D02*
G37*
G36*
X132795Y201070D02*
X132370Y200919D01*
X131995Y200668D01*
X131670Y200316D01*
X131395Y199863D01*
X131170Y199310D01*
X130995Y198656D01*
X130870Y197901D01*
X130795Y197046D01*
X130770Y196090D01*
X125770D01*
X125745Y197046D01*
X125670Y197901D01*
X125545Y198656D01*
X125370Y199310D01*
X125145Y199863D01*
X124870Y200316D01*
X124545Y200668D01*
X124170Y200919D01*
X123745Y201070D01*
X123270Y201121D01*
X133270D01*
X132795Y201070D01*
D02*
G37*
G36*
X173053Y200397D02*
X172628Y200247D01*
X172253Y199997D01*
X171928Y199647D01*
X171653Y199197D01*
X171427Y198647D01*
X171252Y197997D01*
X171127Y197247D01*
X171052Y196397D01*
X171028Y195447D01*
X166028D01*
X166003Y196397D01*
X165928Y197247D01*
X165802Y197997D01*
X165627Y198647D01*
X165403Y199197D01*
X165128Y199647D01*
X164802Y199997D01*
X164428Y200247D01*
X164002Y200397D01*
X163528Y200447D01*
X173528D01*
X173053Y200397D01*
D02*
G37*
G36*
X233680Y320040D02*
X234438Y320040D01*
X235839Y319460D01*
X236910Y318388D01*
X237491Y316987D01*
X237491Y316229D01*
X237491Y299720D01*
Y207010D01*
X266701D01*
X270511Y207010D01*
X270511Y207008D01*
X271268Y207009D01*
X272669Y206430D01*
X273741Y205358D01*
X274321Y203958D01*
X274321Y203200D01*
X274321Y194310D01*
X274319Y194310D01*
X274319Y193552D01*
X273740Y192152D01*
X272668Y191080D01*
X271268Y190500D01*
X270511Y190500D01*
X201931D01*
Y207010D01*
X218441D01*
Y260350D01*
X220981D01*
X220981Y292099D01*
X220980Y292099D01*
X220883Y293091D01*
X220124Y294922D01*
X218723Y296324D01*
X216891Y297082D01*
X215900Y297180D01*
X194310Y297180D01*
X194310D01*
X193300Y297180D01*
X191433Y297953D01*
X190004Y299382D01*
X189231Y301249D01*
X189231Y302259D01*
Y316231D01*
Y316988D01*
X189811Y318388D01*
X190882Y319460D01*
X192282Y320040D01*
X193040D01*
X233680Y320040D01*
X233680Y320040D01*
D02*
G37*
G36*
X158715Y180954D02*
X158970Y177022D01*
X159050Y176669D01*
X159140Y176401D01*
X159241Y176220D01*
X153179D01*
X153280Y176401D01*
X153370Y176669D01*
X153450Y177022D01*
X153519Y177462D01*
X153625Y178601D01*
X153705Y180954D01*
X153710Y181911D01*
X158710D01*
X158715Y180954D01*
D02*
G37*
G36*
X146015D02*
X146270Y177022D01*
X146350Y176669D01*
X146440Y176401D01*
X146541Y176220D01*
X140479D01*
X140580Y176401D01*
X140670Y176669D01*
X140750Y177022D01*
X140819Y177462D01*
X140925Y178601D01*
X141005Y180954D01*
X141010Y181911D01*
X146010D01*
X146015Y180954D01*
D02*
G37*
G36*
X171037Y181293D02*
X171256Y178314D01*
X171356Y177751D01*
X171475Y177260D01*
X171612Y176841D01*
X171767Y176494D01*
X171941Y176220D01*
X165530Y175376D01*
X165624Y175653D01*
X165709Y176002D01*
X165784Y176424D01*
X165903Y177486D01*
X165983Y178839D01*
X166028Y181413D01*
X171028Y182218D01*
X171037Y181293D01*
D02*
G37*
G36*
X270510Y166370D02*
X270510Y166370D01*
X270632Y165131D01*
X271580Y162842D01*
X273332Y161090D01*
X275621Y160142D01*
X276860Y160020D01*
X292100D01*
X292100Y160020D01*
X293110Y160020D01*
X294978Y159247D01*
X296407Y157817D01*
X297180Y155950D01*
X297180Y154940D01*
X297180Y139700D01*
X270510D01*
X243840Y139700D01*
X129540D01*
X128782Y139700D01*
X127382Y140280D01*
X126310Y141352D01*
X125730Y142752D01*
X125730Y143510D01*
Y175262D01*
X125730Y176019D01*
X126310Y177419D01*
X127382Y178491D01*
X128782Y179070D01*
X129540Y179070D01*
X132080Y179070D01*
X132080Y179070D01*
X132838Y179070D01*
X134238Y178490D01*
X135310Y177418D01*
X135890Y176018D01*
X135890Y175260D01*
X135890Y154940D01*
Y154940D01*
X135963Y154197D01*
X136532Y152823D01*
X137583Y151772D01*
X138957Y151203D01*
X139700Y151130D01*
X179674Y151130D01*
X180052Y151167D01*
X180750Y151456D01*
X181284Y151990D01*
X181573Y152688D01*
X181610Y153066D01*
X181610Y153066D01*
X181610Y153439D01*
X181895Y154128D01*
X182423Y154655D01*
X183111Y154940D01*
X183484Y154940D01*
X238760Y154940D01*
X239751Y155038D01*
X241582Y155796D01*
X242984Y157198D01*
X243742Y159029D01*
X243840Y160020D01*
Y176530D01*
X243840Y177540D01*
X244613Y179408D01*
X246042Y180837D01*
X247910Y181610D01*
X270510D01*
Y166370D01*
D02*
G37*
G36*
X172398Y111030D02*
X172458Y110860D01*
X172558Y110710D01*
X172700Y110580D01*
X172882Y110470D01*
X173106Y110380D01*
X173370Y110310D01*
X173676Y110260D01*
X174022Y110230D01*
X174410Y110220D01*
Y108220D01*
X174019Y108210D01*
X173669Y108180D01*
X173361Y108130D01*
X173093Y108061D01*
X172866Y107971D01*
X172680Y107861D01*
X172535Y107732D01*
X172432Y107583D01*
X172368Y107413D01*
X172346Y107224D01*
X172379Y111220D01*
X172398Y111030D01*
D02*
G37*
G36*
X195620Y106770D02*
X195335Y107045D01*
X195047Y107292D01*
X194758Y107509D01*
X194466Y107698D01*
X194171Y107858D01*
X193875Y107988D01*
X193576Y108090D01*
X193275Y108162D01*
X192971Y108205D01*
X192666Y108220D01*
Y110220D01*
X192971Y110234D01*
X193275Y110278D01*
X193576Y110351D01*
X193875Y110452D01*
X194171Y110583D01*
X194466Y110742D01*
X194758Y110931D01*
X195047Y111148D01*
X195335Y111395D01*
X195620Y111670D01*
Y106770D01*
D02*
G37*
G36*
X158635Y105154D02*
X158469Y105038D01*
X158323Y104874D01*
X158196Y104662D01*
X158089Y104403D01*
X158001Y104096D01*
X157933Y103741D01*
X157884Y103339D01*
X157855Y102889D01*
X157845Y102392D01*
X155845Y102018D01*
X155835Y102495D01*
X155756Y103282D01*
X155687Y103593D01*
X155598Y103850D01*
X155489Y104051D01*
X155361Y104198D01*
X155212Y104290D01*
X155044Y104326D01*
X154857Y104308D01*
X158821Y105223D01*
X158635Y105154D01*
D02*
G37*
G36*
X157861Y99245D02*
X157909Y98940D01*
X157988Y98645D01*
X158099Y98361D01*
X158243Y98088D01*
X158418Y97826D01*
X158624Y97574D01*
X158863Y97333D01*
X159134Y97102D01*
X159436Y96882D01*
X154617Y95993D01*
X154851Y96340D01*
X155243Y97013D01*
X155403Y97340D01*
X155538Y97662D01*
X155649Y97977D01*
X155735Y98286D01*
X155796Y98588D01*
X155833Y98884D01*
X155845Y99175D01*
X157845Y99561D01*
X157861Y99245D01*
D02*
G37*
G36*
X215534Y95005D02*
X215288Y94718D01*
X215070Y94428D01*
X214882Y94136D01*
X214722Y93841D01*
X214592Y93545D01*
X214491Y93246D01*
X214418Y92945D01*
X214375Y92641D01*
X214360Y92336D01*
X212360D01*
X212346Y92641D01*
X212302Y92945D01*
X212229Y93246D01*
X212128Y93545D01*
X211998Y93841D01*
X211838Y94136D01*
X211649Y94428D01*
X211432Y94718D01*
X211185Y95005D01*
X210910Y95290D01*
X215810D01*
X215534Y95005D01*
D02*
G37*
G36*
X185054D02*
X184808Y94718D01*
X184590Y94428D01*
X184402Y94136D01*
X184242Y93841D01*
X184112Y93545D01*
X184011Y93246D01*
X183938Y92945D01*
X183895Y92641D01*
X183880Y92336D01*
X181880D01*
X181866Y92641D01*
X181822Y92945D01*
X181749Y93246D01*
X181648Y93545D01*
X181518Y93841D01*
X181358Y94136D01*
X181169Y94428D01*
X180952Y94718D01*
X180706Y95005D01*
X180430Y95290D01*
X185330D01*
X185054Y95005D01*
D02*
G37*
G36*
X115570Y140970D02*
Y140970D01*
X115692Y139731D01*
X116640Y137442D01*
X118392Y135690D01*
X120681Y134742D01*
X121920Y134620D01*
X148590D01*
X212090Y134620D01*
Y134620D01*
X265380Y134620D01*
X266401Y134620D01*
X268286Y133839D01*
X269729Y132396D01*
X270510Y130510D01*
X270510Y129490D01*
X270510Y129490D01*
X270510Y87630D01*
Y86620D01*
X269736Y84752D01*
X268307Y83323D01*
X266440Y82550D01*
X265430D01*
Y82550D01*
X251460D01*
X250197Y82550D01*
X247863Y83517D01*
X246077Y85303D01*
X245110Y87637D01*
X245110Y88900D01*
Y88900D01*
X245110Y101600D01*
X245012Y102591D01*
X244254Y104422D01*
X242852Y105824D01*
X241021Y106582D01*
X240030Y106680D01*
X240030Y106680D01*
X210820D01*
Y127000D01*
X210820D01*
X210771Y127495D01*
X210392Y128411D01*
X209691Y129112D01*
X208776Y129491D01*
X208280Y129540D01*
X201930D01*
X201930Y129540D01*
X201553Y129503D01*
X200858Y129215D01*
X200325Y128682D01*
X200037Y127986D01*
X200000Y127610D01*
Y121260D01*
X200000Y121260D01*
X200000Y120886D01*
X199714Y120195D01*
X199185Y119666D01*
X198494Y119380D01*
X186690D01*
X186185Y119380D01*
X185251Y119767D01*
X184537Y120481D01*
X184150Y121415D01*
Y121920D01*
Y127000D01*
X184150D01*
X184101Y127495D01*
X183722Y128411D01*
X183021Y129112D01*
X182106Y129491D01*
X181610Y129540D01*
X151130D01*
X151130Y129539D01*
X150387Y129466D01*
X149013Y128898D01*
X147962Y127847D01*
X147393Y126473D01*
X147320Y125730D01*
Y106680D01*
Y106175D01*
X146933Y105241D01*
X146219Y104527D01*
X146208Y104522D01*
X146201Y104478D01*
X146095Y103339D01*
X146015Y100986D01*
X146010Y100029D01*
X141010D01*
X141005Y100986D01*
X140773Y104554D01*
X140087Y105241D01*
X139700Y106174D01*
X139700Y106679D01*
Y129540D01*
X109740D01*
X108267Y129833D01*
X106881Y130407D01*
X105632Y131241D01*
X104571Y132303D01*
X103737Y133551D01*
X103163Y134937D01*
X102870Y136410D01*
Y137160D01*
Y203272D01*
X102828Y203335D01*
X102476Y203660D01*
X102023Y203935D01*
X101470Y204160D01*
X100816Y204335D01*
X100062Y204460D01*
X99206Y204535D01*
X98251Y204560D01*
Y209560D01*
X99206Y209585D01*
X100062Y209660D01*
X100816Y209785D01*
X101470Y209960D01*
X102023Y210185D01*
X102476Y210460D01*
X102828Y210785D01*
X102870Y210847D01*
Y213360D01*
X115570D01*
Y140970D01*
D02*
G37*
G36*
X132605Y65894D02*
X132680Y65038D01*
X132805Y64284D01*
X132980Y63630D01*
X133205Y63077D01*
X133480Y62624D01*
X133805Y62272D01*
X134180Y62020D01*
X134605Y61869D01*
X135080Y61819D01*
X125080D01*
X125555Y61869D01*
X125980Y62020D01*
X126355Y62272D01*
X126680Y62624D01*
X126955Y63077D01*
X127180Y63630D01*
X127355Y64284D01*
X127480Y65038D01*
X127555Y65894D01*
X127580Y66849D01*
X132580D01*
X132605Y65894D01*
D02*
G37*
G36*
X297180Y54610D02*
X297180Y54610D01*
X297180Y52984D01*
X296546Y49794D01*
X295301Y46789D01*
X293494Y44085D01*
X291194Y41786D01*
X288490Y39979D01*
X285486Y38734D01*
X282296Y38100D01*
X280670Y38100D01*
X207010Y38100D01*
X207010Y38100D01*
X205999D01*
X204132Y38873D01*
X202703Y40302D01*
X201930Y42169D01*
X201930Y43180D01*
Y49530D01*
X201930Y50540D01*
X202703Y52408D01*
X204132Y53837D01*
X205999Y54610D01*
X207010Y54610D01*
X222250Y54610D01*
X267970D01*
X268966Y54659D01*
X270919Y55047D01*
X272759Y55809D01*
X274416Y56916D01*
X275824Y58324D01*
X276931Y59980D01*
X277693Y61821D01*
X278081Y63774D01*
X278130Y64770D01*
X278130Y124460D01*
X297180D01*
Y54610D01*
D02*
G37*
G36*
X157039Y57690D02*
X157100Y57520D01*
X157202Y57370D01*
X157344Y57240D01*
X157527Y57130D01*
X157750Y57040D01*
X158014Y56970D01*
X158319Y56920D01*
X158664Y56890D01*
X159050Y56880D01*
Y54880D01*
X158664Y54870D01*
X158319Y54840D01*
X158014Y54790D01*
X157750Y54720D01*
X157527Y54630D01*
X157344Y54520D01*
X157202Y54390D01*
X157100Y54240D01*
X157039Y54070D01*
X157019Y53880D01*
Y57880D01*
X157039Y57690D01*
D02*
G37*
G36*
X134605Y49891D02*
X134180Y49740D01*
X133805Y49488D01*
X133480Y49136D01*
X133205Y48683D01*
X132980Y48130D01*
X132805Y47476D01*
X132725Y46990D01*
X132805Y46504D01*
X132980Y45850D01*
X133205Y45297D01*
X133480Y44844D01*
X133805Y44492D01*
X134180Y44240D01*
X134605Y44089D01*
X135080Y44039D01*
X125080D01*
X125555Y44089D01*
X125980Y44240D01*
X126355Y44492D01*
X126680Y44844D01*
X126955Y45297D01*
X127180Y45850D01*
X127355Y46504D01*
X127436Y46990D01*
X127355Y47476D01*
X127180Y48130D01*
X126955Y48683D01*
X126680Y49136D01*
X126355Y49488D01*
X125980Y49740D01*
X125555Y49891D01*
X125080Y49941D01*
X135080D01*
X134605Y49891D01*
D02*
G37*
G36*
X157039Y39910D02*
X157100Y39740D01*
X157202Y39590D01*
X157344Y39460D01*
X157527Y39350D01*
X157750Y39260D01*
X158014Y39190D01*
X158319Y39140D01*
X158664Y39110D01*
X159050Y39100D01*
Y37100D01*
X158664Y37090D01*
X158319Y37060D01*
X158014Y37010D01*
X157750Y36940D01*
X157527Y36850D01*
X157344Y36740D01*
X157202Y36610D01*
X157100Y36460D01*
X157039Y36290D01*
X157019Y36100D01*
Y40100D01*
X157039Y39910D01*
D02*
G37*
%LPC*%
G36*
X179674Y151130D02*
D01*
X179674D01*
X179674D01*
D02*
G37*
%LPD*%
D10*
X151080Y38100D02*
X171831D01*
X151080Y55880D02*
X174262D01*
X182880Y64498D01*
Y97790D01*
X213360Y60861D02*
Y97790D01*
X212189Y59690D02*
X213360Y60861D01*
X193421Y59690D02*
X212189D01*
X171831Y38100D02*
X193421Y59690D01*
X171220Y109220D02*
X198120D01*
X168910Y111530D02*
Y115470D01*
Y111530D02*
X171220Y109220D01*
X156845Y94615D02*
Y114835D01*
X156210Y115470D02*
X156845Y114835D01*
Y94615D02*
X157480Y93980D01*
D15*
X167640Y206416D02*
D03*
Y227416D02*
D03*
X193040Y125644D02*
D03*
Y146644D02*
D03*
X109220Y207550D02*
D03*
Y228550D02*
D03*
X147858Y228060D02*
D03*
Y207060D02*
D03*
X128539Y228060D02*
D03*
X128539Y207060D02*
D03*
D34*
X237490Y637540D02*
Y662940D01*
X313690D02*
Y680720D01*
X288290Y662940D02*
Y680720D01*
X262890Y662940D02*
Y680720D01*
X237490Y662940D02*
Y681990D01*
X236220D02*
X237490D01*
X212090Y662940D02*
Y680232D01*
X185420Y662940D02*
Y680720D01*
Y662940D02*
X186690D01*
X161290D02*
Y680720D01*
X135890Y662940D02*
Y680720D01*
X110490Y662940D02*
Y681283D01*
X85090Y662940D02*
Y680720D01*
X83820D02*
X85090D01*
X300990Y575310D02*
Y609600D01*
X313690Y622300D01*
Y637540D01*
X109220Y228060D02*
X109221D01*
X128539D01*
X288290Y359410D02*
Y383540D01*
X170180Y229956D02*
Y302260D01*
X96909Y306070D02*
X166370D01*
X170180Y302260D01*
X167640Y227416D02*
X170180Y229956D01*
X93980Y209989D02*
X96909Y207060D01*
X109220D01*
X93980Y209989D02*
Y303141D01*
X96909Y306070D01*
X224790Y490609D02*
Y497840D01*
Y575310D01*
Y490609D02*
X226449Y488950D01*
X275590Y575310D02*
Y599440D01*
Y508389D02*
Y575310D01*
X143510Y96520D02*
Y115470D01*
X130080Y83090D02*
X143510Y96520D01*
X130080Y55880D02*
Y83090D01*
X166370Y615950D02*
X237490D01*
X161290Y621030D02*
X166370Y615950D01*
X237490D02*
X250190Y603250D01*
X366029Y198120D02*
X372991D01*
X375920Y201049D01*
X365489Y198660D02*
X366029Y198120D01*
X375920Y201049D02*
Y443219D01*
X355600Y198120D02*
X356140Y198660D01*
X365489D01*
X375920Y443219D02*
Y502531D01*
X355600Y198120D02*
Y201530D01*
Y440290D02*
X372991D01*
Y505460D02*
X375920Y502531D01*
X278519Y505460D02*
X372991D01*
Y440290D02*
X375920Y443219D01*
X275590Y508389D02*
X278519Y505460D01*
X352671Y487680D02*
X355600Y484751D01*
X227719Y487680D02*
X352671D01*
X355600Y465690D02*
Y484751D01*
X282810Y465690D02*
X330200D01*
X273050Y455930D02*
X282810Y465690D01*
X273050Y436880D02*
Y455930D01*
X269240Y433070D02*
X273050Y436880D01*
X239758Y433070D02*
X269240D01*
X238760Y434068D02*
X239758Y433070D01*
X262890Y612140D02*
X275590Y599440D01*
X262890Y612140D02*
Y637540D01*
X250190Y575310D02*
Y603250D01*
X161290Y621030D02*
Y637540D01*
X138819Y603250D02*
X221861D01*
X135890Y606179D02*
Y637540D01*
X221861Y603250D02*
X224790Y600321D01*
X135890Y606179D02*
X138819Y603250D01*
X224790Y575310D02*
Y600321D01*
X173990Y575310D02*
Y591431D01*
X113419Y594360D02*
X171061D01*
X173990Y591431D01*
X110490Y597289D02*
X113419Y594360D01*
X110490Y597289D02*
Y637540D01*
X151082Y231284D02*
Y237442D01*
X147858Y228060D02*
X151082Y231284D01*
Y237442D02*
X161290Y247650D01*
X128539Y242411D02*
X139700Y253571D01*
X128539Y228060D02*
Y242411D01*
X139700Y253571D02*
Y256540D01*
X161290Y247650D02*
Y282821D01*
X139700Y285750D02*
X158361D01*
X161290Y282821D01*
X134620Y193040D02*
X143510Y184150D01*
Y166470D02*
Y184150D01*
X131199Y193040D02*
X134620D01*
X128539Y228060D02*
X128539Y228060D01*
X168528Y166853D02*
Y205529D01*
X167640Y206416D02*
X168528Y205529D01*
Y166853D02*
X168910Y166470D01*
X128270Y206791D02*
X128539Y207060D01*
X128270Y195969D02*
Y206791D01*
Y195969D02*
X131199Y193040D01*
X156210Y166470D02*
Y187960D01*
X147858Y196312D02*
X156210Y187960D01*
X147858Y196312D02*
Y207060D01*
X130080Y38100D02*
Y55880D01*
D35*
X330200Y389490D02*
X355600D01*
X330200Y364090D02*
X355600D01*
D36*
X224790Y497840D02*
X233680D01*
X162560Y514350D02*
X173990D01*
Y507803D02*
Y514350D01*
Y575310D01*
X39370Y466090D02*
Y482600D01*
X22860Y446159D02*
Y503117D01*
X25203Y505460D02*
X171647D01*
X22860Y503117D02*
X25203Y505460D01*
X19439Y415290D02*
X39370D01*
X11819Y389890D02*
X39370D01*
X37480Y442580D02*
X39370Y440690D01*
X26439Y442580D02*
X37480D01*
X22860Y446159D02*
X26439Y442580D01*
X8890Y392819D02*
X11819Y389890D01*
X148590Y516693D02*
Y575310D01*
X146247Y514350D02*
X148590Y516693D01*
X17583Y514350D02*
X146247D01*
X15240Y512007D02*
X17583Y514350D01*
X15240Y419489D02*
Y512007D01*
Y419489D02*
X19439Y415290D01*
X171647Y505460D02*
X173990Y507803D01*
X162560Y434068D02*
Y481527D01*
X153867Y490220D02*
X162560Y481527D01*
X46990Y490220D02*
X153867D01*
X39370Y482600D02*
X46990Y490220D01*
X181413Y260350D02*
X200000D01*
X179070Y262693D02*
X181413Y260350D01*
X179070Y262693D02*
Y325120D01*
X226449Y488950D02*
X227719Y487680D01*
X120847Y523240D02*
X123190Y525583D01*
X8890Y392819D02*
Y520897D01*
X123190Y525583D02*
Y575310D01*
X8890Y520897D02*
X11233Y523240D01*
X120847D01*
X8890Y245110D02*
X13970Y240030D01*
X8890Y245110D02*
Y392819D01*
X13970Y240030D02*
X39370D01*
Y265430D02*
X40640Y264160D01*
D38*
X39370Y466090D02*
D03*
X64770D02*
D03*
X39370Y440690D02*
D03*
X64770D02*
D03*
X39370Y415290D02*
D03*
X64770D02*
D03*
X39370Y389890D02*
D03*
X64770D02*
D03*
X39370Y364490D02*
D03*
X355600Y150730D02*
D03*
X330200D02*
D03*
X355600Y176130D02*
D03*
X330200D02*
D03*
X355600Y201530D02*
D03*
X330200D02*
D03*
X355600Y226930D02*
D03*
X330200D02*
D03*
X355600Y252330D02*
D03*
Y364090D02*
D03*
X330200D02*
D03*
X355600Y389490D02*
D03*
X330200D02*
D03*
X355600Y414890D02*
D03*
X330200D02*
D03*
X355600Y440290D02*
D03*
X330200D02*
D03*
X355600Y465690D02*
D03*
D39*
X64770Y364490D02*
D03*
X330200Y252330D02*
D03*
Y465690D02*
D03*
D40*
X200660Y359410D02*
D03*
Y308610D02*
D03*
D41*
Y334010D02*
D03*
D42*
X114300Y256540D02*
D03*
X139700D02*
D03*
Y285750D02*
D03*
X114300D02*
D03*
D43*
X39370Y148590D02*
D03*
Y97790D02*
D03*
Y173990D02*
D03*
Y123190D02*
D03*
Y265430D02*
D03*
Y214630D02*
D03*
Y290830D02*
D03*
Y240030D02*
D03*
D44*
X123190Y575310D02*
D03*
X148590D02*
D03*
X173990D02*
D03*
X199390D02*
D03*
X224790D02*
D03*
X250190D02*
D03*
X275590D02*
D03*
X300990D02*
D03*
X237490Y662940D02*
D03*
Y637540D02*
D03*
X212090Y662940D02*
D03*
X186690D02*
D03*
X212090Y637540D02*
D03*
X186690D02*
D03*
X161290Y662940D02*
D03*
Y637540D02*
D03*
X135890Y662940D02*
D03*
Y637540D02*
D03*
X110490Y662940D02*
D03*
Y637540D02*
D03*
X85090Y662940D02*
D03*
X262890Y637540D02*
D03*
X288290D02*
D03*
X313690D02*
D03*
X262890Y662940D02*
D03*
X288290D02*
D03*
X313690D02*
D03*
D45*
X97790Y575310D02*
D03*
X85090Y637540D02*
D03*
D46*
X361950Y563880D02*
D03*
Y38100D02*
D03*
X38100Y563880D02*
D03*
Y38100D02*
D03*
D47*
X187960Y434068D02*
D03*
X238760D02*
D03*
X162560D02*
D03*
X213360D02*
D03*
D48*
X171252Y63476D02*
D03*
X229052D02*
D03*
X288290Y359410D02*
D03*
X233680Y497840D02*
D03*
X162560Y514350D02*
D03*
X200000Y260350D02*
D03*
X198120Y109220D02*
D03*
X213360Y97790D02*
D03*
X182880D02*
D03*
X157480Y93980D02*
D03*
D49*
X257810Y303530D02*
D03*
Y368300D02*
D03*
Y352108D02*
D03*
Y335915D02*
D03*
Y319722D02*
D03*
Y92710D02*
D03*
Y109220D02*
D03*
Y125730D02*
D03*
X210820Y46990D02*
D03*
X229870D02*
D03*
D50*
X151080Y55880D02*
D03*
X130080D02*
D03*
X151080Y38100D02*
D03*
X130080D02*
D03*
X249006Y287020D02*
D03*
X228006D02*
D03*
D51*
X287020Y116580D02*
D03*
Y147580D02*
D03*
D52*
X222250Y118350D02*
D03*
Y148350D02*
D03*
D53*
X258630Y259080D02*
D03*
X228630D02*
D03*
D54*
X259370Y222390D02*
D03*
Y199390D02*
D03*
Y176390D02*
D03*
D55*
X200370Y199390D02*
D03*
D56*
X168910Y115470D02*
D03*
X156210D02*
D03*
X143510D02*
D03*
X130810D02*
D03*
X168910Y166470D02*
D03*
X156210D02*
D03*
X143510D02*
D03*
X130810D02*
D03*
D57*
X187960Y408235D02*
Y434068D01*
Y408235D02*
X191065Y405130D01*
X287725D01*
X290830Y408235D02*
Y435610D01*
X287725Y405130D02*
X290830Y408235D01*
Y435610D02*
X295510Y440290D01*
X330200D01*
X187960Y434068D02*
Y476250D01*
X199390Y487680D02*
Y575310D01*
X187960Y476250D02*
X199390Y487680D01*
M02*
