G04*
G04 #@! TF.GenerationSoftware,Altium Limited,Altium Designer,24.2.2 (26)*
G04*
G04 Layer_Color=8421504*
%FSLAX44Y44*%
%MOMM*%
G71*
G04*
G04 #@! TF.SameCoordinates,A69A520D-3C44-4C1A-B5D4-BA9765A151AF*
G04*
G04*
G04 #@! TF.FilePolarity,Positive*
G04*
G01*
G75*
%ADD15R,1.2000X1.2000*%
G04:AMPARAMS|DCode=16|XSize=2mm|YSize=2mm|CornerRadius=0.3mm|HoleSize=0mm|Usage=FLASHONLY|Rotation=0.000|XOffset=0mm|YOffset=0mm|HoleType=Round|Shape=RoundedRectangle|*
%AMROUNDEDRECTD16*
21,1,2.0000,1.4000,0,0,0.0*
21,1,1.4000,2.0000,0,0,0.0*
1,1,0.6000,0.7000,-0.7000*
1,1,0.6000,-0.7000,-0.7000*
1,1,0.6000,-0.7000,0.7000*
1,1,0.6000,0.7000,0.7000*
%
%ADD16ROUNDEDRECTD16*%
G04:AMPARAMS|DCode=17|XSize=0.6mm|YSize=1.8mm|CornerRadius=0.15mm|HoleSize=0mm|Usage=FLASHONLY|Rotation=0.000|XOffset=0mm|YOffset=0mm|HoleType=Round|Shape=RoundedRectangle|*
%AMROUNDEDRECTD17*
21,1,0.6000,1.5000,0,0,0.0*
21,1,0.3000,1.8000,0,0,0.0*
1,1,0.3000,0.1500,-0.7500*
1,1,0.3000,-0.1500,-0.7500*
1,1,0.3000,-0.1500,0.7500*
1,1,0.3000,0.1500,0.7500*
%
%ADD17ROUNDEDRECTD17*%
G04:AMPARAMS|DCode=18|XSize=0.3mm|YSize=1.8mm|CornerRadius=0.075mm|HoleSize=0mm|Usage=FLASHONLY|Rotation=0.000|XOffset=0mm|YOffset=0mm|HoleType=Round|Shape=RoundedRectangle|*
%AMROUNDEDRECTD18*
21,1,0.3000,1.6500,0,0,0.0*
21,1,0.1500,1.8000,0,0,0.0*
1,1,0.1500,0.0750,-0.8250*
1,1,0.1500,-0.0750,-0.8250*
1,1,0.1500,-0.0750,0.8250*
1,1,0.1500,0.0750,0.8250*
%
%ADD18ROUNDEDRECTD18*%
D15*
X199390Y221910D02*
D03*
Y242910D02*
D03*
X199584Y176820D02*
D03*
Y197820D02*
D03*
D16*
X251152Y29676D02*
D03*
X149152D02*
D03*
X251152Y68676D02*
D03*
X149152D02*
D03*
D17*
X232402Y79174D02*
D03*
X168152D02*
D03*
X176152D02*
D03*
X224402D02*
D03*
D18*
X182680D02*
D03*
X187689D02*
D03*
X192698D02*
D03*
X197708D02*
D03*
X202716D02*
D03*
X207726D02*
D03*
X212735D02*
D03*
X217744D02*
D03*
M02*
