G04*
G04 #@! TF.GenerationSoftware,Altium Limited,Altium Designer,24.2.2 (26)*
G04*
G04 Layer_Color=8388736*
%FSLAX44Y44*%
%MOMM*%
G71*
G04*
G04 #@! TF.SameCoordinates,A69A520D-3C44-4C1A-B5D4-BA9765A151AF*
G04*
G04*
G04 #@! TF.FilePolarity,Negative*
G04*
G01*
G75*
%ADD19R,1.4032X1.4032*%
G04:AMPARAMS|DCode=20|XSize=2.2032mm|YSize=2.2032mm|CornerRadius=0.4016mm|HoleSize=0mm|Usage=FLASHONLY|Rotation=0.000|XOffset=0mm|YOffset=0mm|HoleType=Round|Shape=RoundedRectangle|*
%AMROUNDEDRECTD20*
21,1,2.2032,1.4000,0,0,0.0*
21,1,1.4000,2.2032,0,0,0.0*
1,1,0.8032,0.7000,-0.7000*
1,1,0.8032,-0.7000,-0.7000*
1,1,0.8032,-0.7000,0.7000*
1,1,0.8032,0.7000,0.7000*
%
%ADD20ROUNDEDRECTD20*%
G04:AMPARAMS|DCode=21|XSize=0.75mm|YSize=1.95mm|CornerRadius=0.225mm|HoleSize=0mm|Usage=FLASHONLY|Rotation=0.000|XOffset=0mm|YOffset=0mm|HoleType=Round|Shape=RoundedRectangle|*
%AMROUNDEDRECTD21*
21,1,0.7500,1.5000,0,0,0.0*
21,1,0.3000,1.9500,0,0,0.0*
1,1,0.4500,0.1500,-0.7500*
1,1,0.4500,-0.1500,-0.7500*
1,1,0.4500,-0.1500,0.7500*
1,1,0.4500,0.1500,0.7500*
%
%ADD21ROUNDEDRECTD21*%
G04:AMPARAMS|DCode=22|XSize=0.45mm|YSize=1.95mm|CornerRadius=0.15mm|HoleSize=0mm|Usage=FLASHONLY|Rotation=0.000|XOffset=0mm|YOffset=0mm|HoleType=Round|Shape=RoundedRectangle|*
%AMROUNDEDRECTD22*
21,1,0.4500,1.6500,0,0,0.0*
21,1,0.1500,1.9500,0,0,0.0*
1,1,0.3000,0.0750,-0.8250*
1,1,0.3000,-0.0750,-0.8250*
1,1,0.3000,-0.0750,0.8250*
1,1,0.3000,0.0750,0.8250*
%
%ADD22ROUNDEDRECTD22*%
%ADD23C,2.2032*%
%ADD24R,2.2032X2.2032*%
%ADD25O,2.6032X2.0032*%
%ADD26R,2.6032X2.0032*%
%ADD27O,1.9812X2.2352*%
%ADD28O,3.2032X2.2032*%
%ADD29C,1.8032*%
%ADD30R,1.8032X1.8032*%
%ADD31C,6.7032*%
%ADD32O,2.2032X3.2032*%
%ADD33C,0.9032*%
D19*
X199390Y221910D02*
D03*
Y242910D02*
D03*
X199584Y176820D02*
D03*
Y197820D02*
D03*
D20*
X251152Y29676D02*
D03*
X149152D02*
D03*
X251152Y68676D02*
D03*
X149152D02*
D03*
D21*
X232402Y79174D02*
D03*
X168152D02*
D03*
X176152D02*
D03*
X224402D02*
D03*
D22*
X182680D02*
D03*
X187689D02*
D03*
X192698D02*
D03*
X197708D02*
D03*
X202716D02*
D03*
X207726D02*
D03*
X212735D02*
D03*
X217744D02*
D03*
D23*
X39370Y466090D02*
D03*
X64770D02*
D03*
X39370Y440690D02*
D03*
X64770D02*
D03*
X39370Y415290D02*
D03*
X64770D02*
D03*
X39370Y389890D02*
D03*
X64770D02*
D03*
X39370Y364490D02*
D03*
X355600Y150730D02*
D03*
X330200D02*
D03*
X355600Y176130D02*
D03*
X330200D02*
D03*
X355600Y201530D02*
D03*
X330200D02*
D03*
X355600Y226930D02*
D03*
X330200D02*
D03*
X355600Y252330D02*
D03*
Y364090D02*
D03*
X330200D02*
D03*
X355600Y389490D02*
D03*
X330200D02*
D03*
X355600Y414890D02*
D03*
X330200D02*
D03*
X355600Y440290D02*
D03*
X330200D02*
D03*
X355600Y465690D02*
D03*
D24*
X64770Y364490D02*
D03*
X330200Y252330D02*
D03*
Y465690D02*
D03*
D25*
X200660Y359410D02*
D03*
Y308610D02*
D03*
D26*
Y334010D02*
D03*
D27*
X114300Y256540D02*
D03*
X139700D02*
D03*
Y285750D02*
D03*
X114300D02*
D03*
D28*
X39370Y148590D02*
D03*
Y97790D02*
D03*
Y173990D02*
D03*
Y123190D02*
D03*
Y265430D02*
D03*
Y214630D02*
D03*
Y290830D02*
D03*
Y240030D02*
D03*
D29*
X123190Y575310D02*
D03*
X148590D02*
D03*
X173990D02*
D03*
X199390D02*
D03*
X224790D02*
D03*
X250190D02*
D03*
X275590D02*
D03*
X300990D02*
D03*
X237490Y662940D02*
D03*
Y637540D02*
D03*
X212090Y662940D02*
D03*
X186690D02*
D03*
X212090Y637540D02*
D03*
X186690D02*
D03*
X161290Y662940D02*
D03*
Y637540D02*
D03*
X135890Y662940D02*
D03*
Y637540D02*
D03*
X110490Y662940D02*
D03*
Y637540D02*
D03*
X85090Y662940D02*
D03*
X262890Y637540D02*
D03*
X288290D02*
D03*
X313690D02*
D03*
X262890Y662940D02*
D03*
X288290D02*
D03*
X313690D02*
D03*
D30*
X97790Y575310D02*
D03*
X85090Y637540D02*
D03*
D31*
X361950Y563880D02*
D03*
Y38100D02*
D03*
X38100Y563880D02*
D03*
Y38100D02*
D03*
D32*
X187960Y434068D02*
D03*
X238760D02*
D03*
X162560D02*
D03*
X213360D02*
D03*
D33*
X171252Y63476D02*
D03*
X229052D02*
D03*
M02*
